<svg width="221" height="19" viewBox="0 0 221 19" fill="none" xmlns="http://www.w3.org/2000/svg">
<path d="M6.17432 15L2.57812 5.52246H2.51953C2.53906 5.72266 2.55615 5.9668 2.5708 6.25488C2.58545 6.54297 2.59766 6.85791 2.60742 7.19971C2.61719 7.53662 2.62207 7.88086 2.62207 8.23242V15H1.46484V4.29199H3.31055L6.70166 13.1982H6.75293L10.1953 4.29199H12.0264V15H10.7959V8.14453C10.7959 7.82715 10.8008 7.50977 10.8105 7.19238C10.8203 6.87012 10.8325 6.56738 10.8472 6.28418C10.8618 5.99609 10.8765 5.74707 10.8911 5.53711H10.8325L7.19238 15H6.17432ZM17.7759 6.84082C18.7329 6.84082 19.4434 7.05566 19.9072 7.48535C20.3711 7.91504 20.603 8.60107 20.603 9.54346V15H19.7168L19.4824 13.8135H19.4238C19.1992 14.1064 18.9648 14.353 18.7207 14.5532C18.4766 14.7485 18.1934 14.8975 17.8711 15C17.5537 15.0977 17.1631 15.1465 16.6992 15.1465C16.2109 15.1465 15.7764 15.061 15.3955 14.8901C15.0195 14.7192 14.7217 14.4604 14.502 14.1138C14.2871 13.7671 14.1797 13.3276 14.1797 12.7954C14.1797 11.9946 14.4971 11.3794 15.1318 10.9497C15.7666 10.52 16.7334 10.2856 18.0322 10.2466L19.4165 10.188V9.69727C19.4165 9.00391 19.2676 8.51807 18.9697 8.23975C18.6719 7.96143 18.252 7.82227 17.71 7.82227C17.29 7.82227 16.8896 7.8833 16.5088 8.00537C16.1279 8.12744 15.7666 8.27148 15.4248 8.4375L15.0513 7.51465C15.4126 7.3291 15.8276 7.17041 16.2964 7.03857C16.7651 6.90674 17.2583 6.84082 17.7759 6.84082ZM19.4019 11.0449L18.1787 11.0962C17.1777 11.1353 16.4722 11.2988 16.062 11.5869C15.6519 11.875 15.4468 12.2827 15.4468 12.8101C15.4468 13.269 15.5859 13.6084 15.8643 13.8281C16.1426 14.0479 16.5112 14.1577 16.9702 14.1577C17.6831 14.1577 18.2666 13.96 18.7207 13.5645C19.1748 13.1689 19.4019 12.5757 19.4019 11.7847V11.0449ZM25.9644 15.1465C24.9487 15.1465 24.1431 14.7998 23.5474 14.1064C22.9565 13.4131 22.6611 12.3828 22.6611 11.0156C22.6611 9.63379 22.9639 8.59131 23.5693 7.88818C24.1748 7.18018 24.9805 6.82617 25.9863 6.82617C26.4111 6.82617 26.7822 6.88232 27.0996 6.99463C27.417 7.10693 27.6904 7.2583 27.9199 7.44873C28.1494 7.63428 28.3423 7.84668 28.4985 8.08594H28.5864C28.5669 7.93457 28.5474 7.72705 28.5278 7.46338C28.5083 7.19971 28.4985 6.98486 28.4985 6.81885V3.60352H29.7144V15H28.7329L28.5498 13.8574H28.4985C28.3472 14.0967 28.1543 14.314 27.9199 14.5093C27.6904 14.7046 27.4146 14.8608 27.0923 14.978C26.7749 15.0903 26.3989 15.1465 25.9644 15.1465ZM26.1548 14.1357C27.0142 14.1357 27.6221 13.8916 27.9785 13.4033C28.335 12.915 28.5132 12.1899 28.5132 11.228V11.0083C28.5132 9.98779 28.3423 9.2041 28.0005 8.65723C27.6636 8.11035 27.0483 7.83691 26.1548 7.83691C25.4077 7.83691 24.8486 8.125 24.4775 8.70117C24.1064 9.27246 23.9209 10.0537 23.9209 11.0449C23.9209 12.0312 24.104 12.793 24.4702 13.3301C24.8413 13.8672 25.4028 14.1357 26.1548 14.1357ZM35.3833 6.82617C36.0669 6.82617 36.6528 6.97754 37.1411 7.28027C37.6294 7.58301 38.0029 8.00781 38.2617 8.55469C38.5205 9.09668 38.6499 9.73145 38.6499 10.459V11.2134H33.1055C33.1201 12.1558 33.3545 12.8735 33.8086 13.3667C34.2627 13.8599 34.9023 14.1064 35.7275 14.1064C36.2354 14.1064 36.6846 14.0601 37.0752 13.9673C37.4658 13.8745 37.8711 13.7378 38.291 13.5571V14.6265C37.8857 14.8071 37.4829 14.939 37.0825 15.022C36.687 15.105 36.2183 15.1465 35.6763 15.1465C34.9048 15.1465 34.231 14.9902 33.6548 14.6777C33.0835 14.3604 32.6392 13.8965 32.3218 13.2861C32.0044 12.6758 31.8457 11.9287 31.8457 11.0449C31.8457 10.1807 31.9897 9.43359 32.2778 8.80371C32.5708 8.16895 32.981 7.68066 33.5083 7.33887C34.0405 6.99707 34.6655 6.82617 35.3833 6.82617ZM35.3687 7.82227C34.7192 7.82227 34.2017 8.03467 33.8159 8.45947C33.4302 8.88428 33.2007 9.47754 33.1274 10.2393H37.3755C37.3706 9.76074 37.2949 9.34082 37.1484 8.97949C37.0068 8.61328 36.7896 8.33008 36.4966 8.12988C36.2036 7.9248 35.8276 7.82227 35.3687 7.82227ZM51.145 14.9854L49.7168 10.3125C49.6533 10.1123 49.5923 9.91699 49.5337 9.72656C49.48 9.53125 49.4287 9.3457 49.3799 9.16992C49.3359 8.98926 49.2944 8.82324 49.2554 8.67188C49.2212 8.51562 49.1919 8.38135 49.1675 8.26904H49.1162C49.0967 8.38135 49.0698 8.51562 49.0356 8.67188C49.0015 8.82324 48.96 8.98926 48.9111 9.16992C48.8672 9.35059 48.8184 9.54102 48.7646 9.74121C48.7109 9.93652 48.6499 10.1343 48.5815 10.3345L47.0874 14.9854H45.7178L43.5059 6.95801H44.7656L45.9229 11.3892C46.001 11.6821 46.0742 11.9727 46.1426 12.2607C46.2158 12.5439 46.2769 12.8125 46.3257 13.0664C46.3794 13.3154 46.4185 13.5327 46.4429 13.7183H46.5015C46.5308 13.5962 46.5625 13.4497 46.5967 13.2788C46.6357 13.1079 46.6772 12.9272 46.7212 12.7368C46.77 12.5415 46.8213 12.3486 46.875 12.1582C46.9287 11.9629 46.9824 11.7798 47.0361 11.6089L48.5156 6.95801H49.8267L51.2549 11.6016C51.3281 11.8359 51.3989 12.0801 51.4673 12.334C51.5405 12.5879 51.6064 12.8345 51.665 13.0737C51.7236 13.3081 51.7651 13.5181 51.7896 13.7036H51.8481C51.8677 13.5376 51.9043 13.3325 51.958 13.0884C52.0117 12.8442 52.0728 12.5757 52.1411 12.2827C52.2144 11.9897 52.29 11.6919 52.3682 11.3892L53.54 6.95801H54.7778L52.5586 14.9854H51.145ZM57.4585 6.97266V15H56.2427V6.97266H57.4585ZM56.8652 3.96973C57.0654 3.96973 57.2363 4.03564 57.3779 4.16748C57.5244 4.29443 57.5977 4.49463 57.5977 4.76807C57.5977 5.03662 57.5244 5.23682 57.3779 5.36865C57.2363 5.50049 57.0654 5.56641 56.8652 5.56641C56.6553 5.56641 56.4795 5.50049 56.3379 5.36865C56.2012 5.23682 56.1328 5.03662 56.1328 4.76807C56.1328 4.49463 56.2012 4.29443 56.3379 4.16748C56.4795 4.03564 56.6553 3.96973 56.8652 3.96973ZM62.6294 14.1504C62.8296 14.1504 63.0347 14.1333 63.2446 14.0991C63.4546 14.0649 63.6255 14.0234 63.7573 13.9746V14.9194C63.6157 14.9829 63.418 15.0366 63.1641 15.0806C62.915 15.1245 62.6709 15.1465 62.4316 15.1465C62.0068 15.1465 61.6211 15.0732 61.2744 14.9268C60.9277 14.7754 60.6494 14.5215 60.4395 14.165C60.2344 13.8086 60.1318 13.3154 60.1318 12.6855V7.9248H58.9893V7.33154L60.1392 6.85547L60.6226 5.1123H61.355V6.97266H63.7061V7.9248H61.355V12.6489C61.355 13.1519 61.4697 13.5278 61.6992 13.7769C61.9336 14.0259 62.2437 14.1504 62.6294 14.1504ZM66.5991 3.60352V7.00928C66.5991 7.20459 66.5942 7.40234 66.5845 7.60254C66.5747 7.79785 66.5576 7.97852 66.5332 8.14453H66.6138C66.7798 7.86133 66.9897 7.62451 67.2437 7.43408C67.5024 7.23877 67.7954 7.09229 68.1226 6.99463C68.4497 6.89209 68.7964 6.84082 69.1626 6.84082C69.8071 6.84082 70.3442 6.94336 70.7739 7.14844C71.2085 7.35352 71.5332 7.6709 71.748 8.10059C71.9678 8.53027 72.0776 9.08691 72.0776 9.77051V15H70.8765V9.85107C70.8765 9.18213 70.7227 8.68164 70.415 8.34961C70.1123 8.01758 69.646 7.85156 69.0161 7.85156C68.4204 7.85156 67.9443 7.96631 67.5879 8.1958C67.2363 8.42041 66.9824 8.75244 66.8262 9.19189C66.6748 9.63135 66.5991 10.1685 66.5991 10.8032V15H65.3833V3.60352H66.5991ZM97.2163 3.60352V6.45264C97.2163 6.77979 97.2065 7.09717 97.187 7.40479C97.1724 7.7124 97.1602 7.95166 97.1504 8.12256H97.2163C97.436 7.76123 97.7534 7.45605 98.1685 7.20703C98.5835 6.95801 99.1133 6.8335 99.7578 6.8335C100.764 6.8335 101.564 7.18262 102.16 7.88086C102.761 8.57422 103.061 9.60693 103.061 10.979C103.061 11.8823 102.924 12.644 102.651 13.2642C102.377 13.8843 101.992 14.353 101.494 14.6704C100.996 14.9878 100.407 15.1465 99.7285 15.1465C99.0938 15.1465 98.5713 15.0293 98.1611 14.7949C97.7559 14.5557 97.4434 14.2651 97.2236 13.9233H97.1284L96.8794 15H96.0005V3.60352H97.2163ZM99.5601 7.85156C98.979 7.85156 98.5176 7.96631 98.1758 8.1958C97.834 8.42041 97.5874 8.76221 97.436 9.22119C97.2896 9.67529 97.2163 10.2515 97.2163 10.9497V11.0156C97.2163 12.0264 97.3848 12.8003 97.7217 13.3374C98.0586 13.8696 98.6714 14.1357 99.5601 14.1357C100.307 14.1357 100.866 13.8623 101.237 13.3154C101.613 12.7686 101.801 11.9873 101.801 10.9717C101.801 9.93652 101.616 9.15771 101.245 8.63525C100.878 8.11279 100.317 7.85156 99.5601 7.85156ZM103.918 6.97266H105.222L106.994 11.6309C107.097 11.9043 107.192 12.168 107.28 12.4219C107.368 12.6709 107.446 12.9102 107.514 13.1396C107.583 13.3691 107.636 13.5913 107.675 13.8062H107.727C107.795 13.562 107.893 13.2422 108.02 12.8467C108.146 12.4463 108.283 12.0386 108.43 11.6235L110.107 6.97266H111.418L107.924 16.1792C107.739 16.6724 107.521 17.1021 107.272 17.4683C107.028 17.8345 106.73 18.1152 106.379 18.3105C106.027 18.5107 105.603 18.6108 105.104 18.6108C104.875 18.6108 104.672 18.5962 104.497 18.5669C104.321 18.5425 104.169 18.5132 104.042 18.479V17.5049C104.15 17.5293 104.279 17.5513 104.431 17.5708C104.587 17.5903 104.748 17.6001 104.914 17.6001C105.217 17.6001 105.478 17.5415 105.698 17.4243C105.922 17.312 106.115 17.146 106.276 16.9263C106.438 16.7065 106.577 16.4453 106.694 16.1426L107.133 15.0146L103.918 6.97266Z" fill="#F5F5F5"/>
<path d="M88.3711 5.22461C86.9746 4.03125 84.918 4.25977 83.623 5.58008L83.1406 6.08789L82.6328 5.58008C81.3633 4.25977 79.2812 4.03125 77.8848 5.22461C76.2852 6.5957 76.209 9.0332 77.6309 10.5059L82.5566 15.584C82.8613 15.9141 83.3945 15.9141 83.6992 15.584L88.625 10.5059C90.0469 9.0332 89.9707 6.5957 88.3711 5.22461Z" fill="#FDBC30"/>
<path d="M125.479 15H123.208V6.18164H120.3V4.29199H128.386V6.18164H125.479V15ZM137.417 15H135.183V10.2173C135.183 9.03564 134.744 8.44482 133.865 8.44482C133.24 8.44482 132.788 8.65723 132.51 9.08203C132.231 9.50684 132.092 10.1953 132.092 11.1475V15H129.858V3.60352H132.092V5.92529C132.092 6.10596 132.075 6.53076 132.041 7.19971L131.99 7.85889H132.107C132.605 7.05811 133.396 6.65771 134.48 6.65771C135.442 6.65771 136.172 6.9165 136.67 7.43408C137.168 7.95166 137.417 8.69385 137.417 9.66064V15ZM143.108 8.24707C142.634 8.24707 142.263 8.39844 141.995 8.70117C141.726 8.99902 141.572 9.42383 141.533 9.97559H144.668C144.658 9.42383 144.514 8.99902 144.236 8.70117C143.958 8.39844 143.582 8.24707 143.108 8.24707ZM143.423 15.1465C142.104 15.1465 141.074 14.7827 140.332 14.0552C139.59 13.3276 139.219 12.2974 139.219 10.9644C139.219 9.59229 139.561 8.53271 140.244 7.78564C140.933 7.03369 141.882 6.65771 143.093 6.65771C144.25 6.65771 145.151 6.9873 145.796 7.64648C146.44 8.30566 146.763 9.21631 146.763 10.3784V11.4624H141.482C141.506 12.0972 141.694 12.5928 142.046 12.9492C142.397 13.3057 142.891 13.4839 143.525 13.4839C144.019 13.4839 144.485 13.4326 144.924 13.3301C145.364 13.2275 145.823 13.064 146.301 12.8394V14.5679C145.911 14.7632 145.493 14.9072 145.049 15C144.604 15.0977 144.062 15.1465 143.423 15.1465ZM155.911 15H153.677V10.2173C153.677 9.62646 153.577 9.18457 153.376 8.8916C153.181 8.59375 152.871 8.44482 152.446 8.44482C151.875 8.44482 151.46 8.65479 151.201 9.07471C150.942 9.49463 150.813 10.1855 150.813 11.1475V15H148.579V6.81152H150.286L150.586 7.85889H150.71C150.93 7.48291 151.248 7.18994 151.663 6.97998C152.078 6.76514 152.554 6.65771 153.091 6.65771C154.316 6.65771 155.146 7.05811 155.581 7.85889H155.779C155.999 7.47803 156.321 7.18262 156.746 6.97266C157.175 6.7627 157.659 6.65771 158.196 6.65771C159.124 6.65771 159.824 6.89697 160.298 7.37549C160.776 7.84912 161.016 8.61084 161.016 9.66064V15H158.774V10.2173C158.774 9.62646 158.674 9.18457 158.474 8.8916C158.279 8.59375 157.969 8.44482 157.544 8.44482C156.997 8.44482 156.587 8.64014 156.313 9.03076C156.045 9.42139 155.911 10.0415 155.911 10.8911V15ZM166.707 8.24707C166.233 8.24707 165.862 8.39844 165.593 8.70117C165.325 8.99902 165.171 9.42383 165.132 9.97559H168.267C168.257 9.42383 168.113 8.99902 167.834 8.70117C167.556 8.39844 167.18 8.24707 166.707 8.24707ZM167.021 15.1465C165.703 15.1465 164.673 14.7827 163.931 14.0552C163.188 13.3276 162.817 12.2974 162.817 10.9644C162.817 9.59229 163.159 8.53271 163.843 7.78564C164.531 7.03369 165.481 6.65771 166.692 6.65771C167.849 6.65771 168.75 6.9873 169.395 7.64648C170.039 8.30566 170.361 9.21631 170.361 10.3784V11.4624H165.081C165.105 12.0972 165.293 12.5928 165.645 12.9492C165.996 13.3057 166.489 13.4839 167.124 13.4839C167.617 13.4839 168.083 13.4326 168.523 13.3301C168.962 13.2275 169.421 13.064 169.9 12.8394V14.5679C169.509 14.7632 169.092 14.9072 168.647 15C168.203 15.0977 167.661 15.1465 167.021 15.1465ZM178.909 15L178.279 12.1362L177.429 8.51807H177.378L175.884 15H173.481L171.152 6.81152H173.379L174.324 10.437C174.475 11.0864 174.629 11.9824 174.785 13.125H174.829C174.849 12.7539 174.934 12.1655 175.085 11.3599L175.203 10.7373L176.213 6.81152H178.674L179.634 10.7373C179.653 10.8447 179.683 11.0034 179.722 11.2134C179.766 11.4233 179.807 11.6479 179.846 11.8872C179.885 12.1216 179.919 12.3535 179.949 12.583C179.983 12.8076 180.002 12.9883 180.007 13.125H180.051C180.095 12.7734 180.173 12.2925 180.286 11.6821C180.398 11.0669 180.479 10.6519 180.527 10.437L181.509 6.81152H183.699L181.34 15H178.909ZM190.225 15L189.792 13.8867H189.734C189.358 14.3604 188.97 14.6899 188.569 14.8755C188.174 15.0562 187.656 15.1465 187.017 15.1465C186.23 15.1465 185.61 14.9219 185.156 14.4727C184.707 14.0234 184.482 13.3838 184.482 12.5537C184.482 11.6846 184.785 11.0449 185.391 10.6348C186.001 10.2197 186.919 9.99023 188.145 9.94629L189.565 9.90234V9.54346C189.565 8.71338 189.141 8.29834 188.291 8.29834C187.637 8.29834 186.868 8.49609 185.984 8.8916L185.244 7.38281C186.187 6.88965 187.231 6.64307 188.379 6.64307C189.478 6.64307 190.32 6.88232 190.906 7.36084C191.492 7.83936 191.785 8.56689 191.785 9.54346V15H190.225ZM189.565 11.2061L188.701 11.2354C188.052 11.2549 187.568 11.3721 187.251 11.5869C186.934 11.8018 186.775 12.1289 186.775 12.5684C186.775 13.1982 187.136 13.5132 187.859 13.5132C188.376 13.5132 188.789 13.3643 189.097 13.0664C189.409 12.7686 189.565 12.373 189.565 11.8799V11.2061ZM201.218 6.81152V7.94678L199.937 8.27637C200.171 8.64258 200.288 9.05273 200.288 9.50684C200.288 10.3857 199.98 11.0718 199.365 11.5649C198.755 12.0532 197.905 12.2974 196.816 12.2974L196.414 12.2754L196.084 12.2388C195.854 12.4146 195.74 12.6099 195.74 12.8247C195.74 13.147 196.15 13.3081 196.97 13.3081H198.362C199.26 13.3081 199.944 13.501 200.413 13.8867C200.886 14.2725 201.123 14.8389 201.123 15.5859C201.123 16.543 200.723 17.2852 199.922 17.8125C199.126 18.3398 197.981 18.6035 196.487 18.6035C195.344 18.6035 194.47 18.4033 193.865 18.0029C193.264 17.6074 192.964 17.0508 192.964 16.333C192.964 15.8398 193.118 15.4272 193.425 15.0952C193.733 14.7632 194.185 14.5264 194.78 14.3848C194.551 14.2871 194.351 14.1284 194.18 13.9087C194.009 13.6841 193.923 13.4473 193.923 13.1982C193.923 12.8857 194.014 12.627 194.194 12.4219C194.375 12.2119 194.636 12.0068 194.978 11.8066C194.548 11.6211 194.207 11.3232 193.953 10.9131C193.704 10.5029 193.579 10.0195 193.579 9.46289C193.579 8.56934 193.87 7.87842 194.451 7.39014C195.032 6.90186 195.862 6.65771 196.941 6.65771C197.17 6.65771 197.441 6.67969 197.754 6.72363C198.071 6.7627 198.274 6.79199 198.362 6.81152H201.218ZM194.897 16.1572C194.897 16.4648 195.044 16.7065 195.337 16.8823C195.635 17.0581 196.05 17.146 196.582 17.146C197.383 17.146 198.01 17.0361 198.464 16.8164C198.918 16.5967 199.146 16.2964 199.146 15.9155C199.146 15.6079 199.011 15.3955 198.743 15.2783C198.474 15.1611 198.059 15.1025 197.498 15.1025H196.34C195.93 15.1025 195.586 15.1978 195.308 15.3882C195.034 15.5835 194.897 15.8398 194.897 16.1572ZM195.71 9.49219C195.71 9.93652 195.811 10.2881 196.011 10.5469C196.216 10.8057 196.526 10.9351 196.941 10.9351C197.361 10.9351 197.668 10.8057 197.864 10.5469C198.059 10.2881 198.157 9.93652 198.157 9.49219C198.157 8.50586 197.751 8.0127 196.941 8.0127C196.121 8.0127 195.71 8.50586 195.71 9.49219ZM204.353 10.8911C204.353 11.7017 204.485 12.3145 204.749 12.7295C205.017 13.1445 205.452 13.3521 206.052 13.3521C206.648 13.3521 207.075 13.147 207.334 12.7368C207.598 12.3218 207.729 11.7065 207.729 10.8911C207.729 10.0806 207.598 9.47266 207.334 9.06738C207.07 8.66211 206.638 8.45947 206.038 8.45947C205.442 8.45947 205.012 8.66211 204.749 9.06738C204.485 9.46777 204.353 10.0757 204.353 10.8911ZM210.015 10.8911C210.015 12.2241 209.663 13.2666 208.96 14.0186C208.257 14.7705 207.278 15.1465 206.023 15.1465C205.237 15.1465 204.543 14.9756 203.943 14.6338C203.342 14.2871 202.881 13.7915 202.559 13.147C202.236 12.5024 202.075 11.7505 202.075 10.8911C202.075 9.55322 202.424 8.51318 203.123 7.771C203.821 7.02881 204.802 6.65771 206.067 6.65771C206.853 6.65771 207.546 6.82861 208.147 7.17041C208.748 7.51221 209.209 8.00293 209.531 8.64258C209.854 9.28223 210.015 10.0317 210.015 10.8911ZM219.419 15H217.185V10.2173C217.185 9.62646 217.08 9.18457 216.87 8.8916C216.66 8.59375 216.326 8.44482 215.867 8.44482C215.242 8.44482 214.79 8.65479 214.512 9.07471C214.233 9.48975 214.094 10.1807 214.094 11.1475V15H211.86V6.81152H213.567L213.867 7.85889H213.992C214.241 7.46338 214.583 7.16553 215.017 6.96533C215.457 6.76025 215.955 6.65771 216.511 6.65771C217.463 6.65771 218.186 6.9165 218.679 7.43408C219.172 7.94678 219.419 8.68896 219.419 9.66064V15Z" fill="#F5F5F5"/>
</svg>
